<svg width="32" height="32" viewBox="0 0 32 32" fill="none" xmlns="http://www.w3.org/2000/svg">
<path d="M24.3906 5.72646C24.9113 5.20598 25.7547 5.20598 26.2754 5.72646C26.7687 6.21976 26.7949 7.00338 26.3535 7.52724L26.2754 7.6122L17.8848 16.0019L26.2754 24.3935L26.3535 24.4774C26.7949 25.0013 26.7687 25.7849 26.2754 26.2782C25.7547 26.7989 24.9113 26.7989 24.3906 26.2782L15.999 17.8876L7.60939 26.2782C7.08869 26.7989 6.24435 26.7989 5.72365 26.2782C5.23051 25.7849 5.2042 25.0012 5.64552 24.4774L5.72365 24.3935L14.1143 16.0019L5.72365 7.6122L5.64552 7.52724C5.20418 7.00339 5.23036 6.21975 5.72365 5.72646C6.24435 5.20576 7.08869 5.20576 7.60939 5.72646L15.999 14.1171L24.3906 5.72646Z" fill="#2B2B2B"/>
</svg>
